<svg width="375" height="44" viewBox="0 0 375 44" fill="none" xmlns="http://www.w3.org/2000/svg">
<g clip-path="url(#clip0_48_404)">
<rect opacity="0.35" x="336.5" y="17.8333" width="21" height="10.3333" rx="2.16667" stroke="white"/>
<path opacity="0.4" d="M359 21V25C359.805 24.6612 360.328 23.8731 360.328 23C360.328 22.1269 359.805 21.3388 359 21Z" fill="white"/>
<rect x="338" y="19.3333" width="18" height="7.33333" rx="1.33333" fill="white"/>
<path fill-rule="evenodd" clip-rule="evenodd" d="M323.33 19.6079C325.546 19.608 327.677 20.4594 329.283 21.9862C329.404 22.1041 329.597 22.1026 329.716 21.9829L330.872 20.8162C330.933 20.7555 330.966 20.6733 330.966 20.5877C330.965 20.5021 330.931 20.4202 330.87 20.3602C326.655 16.3207 320.005 16.3207 315.79 20.3602C315.729 20.4202 315.694 20.502 315.693 20.5876C315.693 20.6732 315.726 20.7555 315.787 20.8162L316.943 21.9829C317.062 22.1028 317.255 22.1043 317.376 21.9862C318.982 20.4593 321.114 19.6079 323.33 19.6079ZM323.33 23.4036C324.547 23.4035 325.721 23.856 326.624 24.6732C326.746 24.7892 326.938 24.7867 327.057 24.6676L328.212 23.5009C328.273 23.4397 328.307 23.3567 328.306 23.2704C328.305 23.1842 328.269 23.1018 328.207 23.0419C325.459 20.4855 321.203 20.4855 318.455 23.0419C318.393 23.1018 318.357 23.1842 318.357 23.2705C318.356 23.3568 318.39 23.4398 318.451 23.5009L319.605 24.6676C319.724 24.7867 319.916 24.7892 320.038 24.6732C320.94 23.8566 322.113 23.4041 323.33 23.4036ZM325.643 25.9574C325.645 26.0439 325.611 26.1273 325.549 26.1879L323.552 28.2036C323.493 28.2628 323.413 28.2961 323.33 28.2961C323.247 28.2961 323.167 28.2628 323.108 28.2036L321.111 26.1879C321.049 26.1272 321.015 26.0438 321.017 25.9573C321.019 25.8708 321.056 25.7889 321.12 25.7309C322.396 24.652 324.264 24.652 325.54 25.7309C325.604 25.7889 325.641 25.8709 325.643 25.9574Z" fill="white"/>
<path fill-rule="evenodd" clip-rule="evenodd" d="M309.666 17.6665H308.666C308.114 17.6665 307.666 18.1142 307.666 18.6665V27.3332C307.666 27.8855 308.114 28.3332 308.666 28.3332H309.666C310.218 28.3332 310.666 27.8855 310.666 27.3332V18.6665C310.666 18.1142 310.218 17.6665 309.666 17.6665ZM303.999 19.9998H304.999C305.552 19.9998 305.999 20.4476 305.999 20.9998V27.3332C305.999 27.8855 305.552 28.3332 304.999 28.3332H303.999C303.447 28.3332 302.999 27.8855 302.999 27.3332V20.9998C302.999 20.4476 303.447 19.9998 303.999 19.9998ZM300.333 22.3332H299.333C298.78 22.3332 298.333 22.7809 298.333 23.3332V27.3332C298.333 27.8855 298.78 28.3332 299.333 28.3332H300.333C300.885 28.3332 301.333 27.8855 301.333 27.3332V23.3332C301.333 22.7809 300.885 22.3332 300.333 22.3332ZM295.666 24.3332H294.666C294.114 24.3332 293.666 24.7809 293.666 25.3332V27.3332C293.666 27.8855 294.114 28.3332 294.666 28.3332H295.666C296.218 28.3332 296.666 27.8855 296.666 27.3332V25.3332C296.666 24.7809 296.218 24.3332 295.666 24.3332Z" fill="white"/>
<path d="M40.0802 24.8369C39.5242 25.4248 38.8748 25.7188 38.1319 25.7188C37.2569 25.7188 36.5596 25.4134 36.0401 24.8027C35.5206 24.1875 35.2608 23.3809 35.2608 22.3828C35.2608 21.7266 35.393 21.1318 35.6573 20.5986C35.9216 20.0654 36.2976 19.6507 36.7852 19.3545C37.2729 19.0583 37.838 18.9102 38.4805 18.9102C39.4832 18.9102 40.2784 19.2839 40.8663 20.0312C41.4542 20.7786 41.7481 21.779 41.7481 23.0322V23.4971C41.7481 25.2926 41.3425 26.6621 40.5313 27.6055C39.7201 28.5488 38.5102 29.0273 36.9014 29.041H36.7032V27.667H36.9425C37.9223 27.6533 38.6742 27.4186 39.1983 26.9629C39.7224 26.5026 40.0164 25.7939 40.0802 24.8369ZM38.4805 24.4199C38.8132 24.4199 39.1254 24.3242 39.4171 24.1328C39.7087 23.9414 39.9343 23.6771 40.0938 23.3398V22.6904C40.0938 21.9567 39.9434 21.3665 39.6427 20.9199C39.3419 20.4733 38.9522 20.25 38.4737 20.25C37.9952 20.25 37.6124 20.4482 37.3253 20.8447C37.0427 21.2367 36.9014 21.7334 36.9014 22.335C36.9014 22.9593 37.045 23.4629 37.3321 23.8457C37.6192 24.2285 38.002 24.4199 38.4805 24.4199ZM44.1546 27.25C44.4645 27.25 44.7038 27.3389 44.8724 27.5166C45.041 27.6898 45.1254 27.9085 45.1254 28.1729C45.1254 28.4326 45.041 28.6491 44.8724 28.8223C44.7038 28.9909 44.4645 29.0752 44.1546 29.0752C43.8584 29.0752 43.6237 28.9909 43.4505 28.8223C43.2774 28.6536 43.1908 28.4372 43.1908 28.1729C43.1908 27.9085 43.2751 27.6898 43.4437 27.5166C43.6123 27.3389 43.8493 27.25 44.1546 27.25ZM44.1546 21.4463C44.4645 21.4463 44.7038 21.5352 44.8724 21.7129C45.041 21.8861 45.1254 22.1048 45.1254 22.3691C45.1254 22.6289 45.041 22.8454 44.8724 23.0186C44.7038 23.1872 44.4645 23.2715 44.1546 23.2715C43.8584 23.2715 43.6237 23.1872 43.4505 23.0186C43.2774 22.8499 43.1908 22.6335 43.1908 22.3691C43.1908 22.1048 43.2751 21.8861 43.4437 21.7129C43.6123 21.5352 43.8493 21.4463 44.1546 21.4463ZM52.1051 25.4521H53.3424V26.7852H52.1051V29H50.444V26.7852H46.1442L46.0963 25.7734L50.3893 19.0469H52.1051V25.4521ZM47.8395 25.4521H50.444V21.2959L50.3209 21.5146L47.8395 25.4521ZM58.6611 29H57.0068V21.0088L54.5663 21.8428V20.4414L58.4491 19.0127H58.6611V29Z" fill="white"/>
</g>
<defs>
<clipPath id="clip0_48_404">
<rect width="375" height="44" fill="white"/>
</clipPath>
</defs>
</svg>
